HIERARCHY
ROOT joint_Root
{
	OFFSET 0.0 0.0 0.0
	CHANNELS 6 Xposition Yposition Zposition Zrotation Xrotation Yrotation 
	JOINT Hips
	{
		OFFSET 4.5925 91.4895 -427.239
		CHANNELS 6 Xposition Yposition Zposition Zrotation Xrotation Yrotation 
		JOINT Spine
		{
			OFFSET 15.7357 0.0 0.0
			CHANNELS 6 Xposition Yposition Zposition Zrotation Xrotation Yrotation 
			JOINT Chest
			{
				OFFSET 8.98455 -0.406207 0.0
				CHANNELS 6 Xposition Yposition Zposition Zrotation Xrotation Yrotation 
				JOINT Neck
				{
					OFFSET 16.3773 0.0 0.0
					CHANNELS 6 Xposition Yposition Zposition Zrotation Xrotation Yrotation 
					JOINT Head
					{
						OFFSET 6.45672 0.0 0.0
						CHANNELS 6 Xposition Yposition Zposition Zrotation Xrotation Yrotation 
						End Site
						{
							OFFSET 0.0 0.0 0.0
						}
					}
				}
				JOINT Shoulder_L
				{
					OFFSET 12.9942 -0.242716 4.98039
					CHANNELS 6 Xposition Yposition Zposition Zrotation Xrotation Yrotation 
					JOINT UpperArm_L
					{
						OFFSET 5.34809 0.0 0.0
						CHANNELS 6 Xposition Yposition Zposition Zrotation Xrotation Yrotation 
						JOINT LowerArm_L
						{
							OFFSET 24.3286 1.87007e-05 0.0
							CHANNELS 6 Xposition Yposition Zposition Zrotation Xrotation Yrotation 
							JOINT Hand_L
							{
								OFFSET 22.2916 0.0 0.0
								CHANNELS 6 Xposition Yposition Zposition Zrotation Xrotation Yrotation 
								End Site
								{
									OFFSET 0.0 0.0 0.0
								}
							}
						}
					}
				}
				JOINT Shoulder_R
				{
					OFFSET 12.9945 -0.242716 -4.98039
					CHANNELS 6 Xposition Yposition Zposition Zrotation Xrotation Yrotation 
					JOINT UpperArm_R
					{
						OFFSET -5.34813 0.0 0.0
						CHANNELS 6 Xposition Yposition Zposition Zrotation Xrotation Yrotation 
						JOINT LowerArm_R
						{
							OFFSET -24.3289 0.000322201 0.0
							CHANNELS 6 Xposition Yposition Zposition Zrotation Xrotation Yrotation 
							JOINT Hand_R
							{
								OFFSET -22.2915 -0.000108084 0.0
								CHANNELS 6 Xposition Yposition Zposition Zrotation Xrotation Yrotation 
								End Site
								{
									OFFSET 0.0 0.0 0.0
								}
							}
						}
					}
				}
			}
		}
		JOINT UpperLeg_L
		{
			OFFSET -2.19248 -6.46944 0.0
			CHANNELS 6 Xposition Yposition Zposition Zrotation Xrotation Yrotation 
			JOINT LowerLeg_L
			{
				OFFSET 39.0811 0.0 -1.23785e-05
				CHANNELS 6 Xposition Yposition Zposition Zrotation Xrotation Yrotation 
				JOINT Foot_L
				{
					OFFSET 40.9854 0.0 -1.26872e-05
					CHANNELS 6 Xposition Yposition Zposition Zrotation Xrotation Yrotation 
					JOINT Toes_L
					{
						OFFSET 11.7543 0.0 0.0
						CHANNELS 6 Xposition Yposition Zposition Zrotation Xrotation Yrotation 
						End Site
						{
							OFFSET 0.0 0.0 0.0
						}
					}
				}
			}
		}
		JOINT UpperLeg_R
		{
			OFFSET -2.19251 6.46944 0.0
			CHANNELS 6 Xposition Yposition Zposition Zrotation Xrotation Yrotation 
			JOINT LowerLeg_R
			{
				OFFSET -39.0811 -0.00228153 -0.0401928
				CHANNELS 6 Xposition Yposition Zposition Zrotation Xrotation Yrotation 
				JOINT Foot_R
				{
					OFFSET -40.9854 0.0 0.0
					CHANNELS 6 Xposition Yposition Zposition Zrotation Xrotation Yrotation 
					JOINT Toes_R
					{
						OFFSET -11.7543 0.0 0.0
						CHANNELS 6 Xposition Yposition Zposition Zrotation Xrotation Yrotation 
						End Site
						{
							OFFSET 0.0 0.0 0.0
						}
					}
				}
			}
		}
	}
}
MOTION
Frames:	4
Frame Time:	0.0333333
0.000000 0.000000 0.000000 0.000000 0.000000 -0.000000 -1.986190 82.494600 -2.223110 87.740600 -3.379340 7.771890 15.735700 0.000005 -0.000001 86.289300 80.974800 -85.968800 8.984550 -0.406207 -0.000000 10.251400 -1.153560 0.744208 16.377300 -0.000001 -0.000001 -6.531810 -1.690130 0.503870 6.456720 -0.000001 -0.000000 -5.213710 -1.706040 3.863640 12.994200 -0.242716 4.980390 -90.629500 2.254720 -74.390300 5.348090 -0.000007 -0.000001 -69.182100 1.680010 -16.119100 24.328600 0.000019 0.000005 4.411700 13.730000 -18.009900 22.291600 -0.000001 0.000005 16.106200 5.146190 4.052850 12.994500 -0.242716 -4.980390 88.908100 7.267300 -81.430200 -5.348130 -0.000001 -0.000004 -63.604600 9.268540 -18.499100 -24.328900 0.000322 -0.000009 -3.367270 -13.678500 -13.965200 -22.291500 -0.000108 -0.000004 17.614300 5.446290 -4.468360 -2.192480 -6.469440 -0.000000 -171.524000 -15.489400 -18.930200 39.081100 -0.000007 -0.000012 -0.399818 0.212141 62.050900 40.985400 -0.000006 -0.000013 2.293950 8.226520 -84.739300 11.754300 -0.000000 0.000003 -0.000396 -0.003281 -16.698600 -2.192510 6.469440 -0.000001 -179.902000 13.553400 161.453000 -39.081100 -0.002282 -0.040193 0.068591 -0.036063 61.126100 -40.985400 0.000008 0.000006 8.992000 5.029090 -85.591000 -11.754300 -0.000006 -0.000006 -0.762307 -0.949911 -16.070200
0.000000 0.000000 0.000000 0.000000 0.000000 -0.000000 -2.209210 83.591000 -0.531903 88.000500 -2.697830 8.580670 15.735700 0.000005 -0.000001 85.156800 81.914100 -84.953400 8.984550 -0.406207 -0.000000 8.352260 -1.358040 0.505661 16.377300 -0.000001 -0.000001 -4.682710 -1.592460 0.324095 6.456720 -0.000001 -0.000000 -3.649270 -1.319300 3.620960 12.994200 -0.242716 4.980390 -90.426900 1.392770 -72.947100 5.348090 -0.000007 -0.000001 -66.586400 -12.647200 -16.259000 24.328600 0.000019 0.000005 5.628600 20.712800 -15.577400 22.291600 -0.000001 0.000005 11.872200 5.070050 5.756990 12.994500 -0.242716 -4.980390 88.728300 6.700520 -79.225600 -5.348130 -0.000001 -0.000004 -58.768600 1.380590 -18.583800 -24.328900 0.000322 -0.000009 -1.940510 -10.541400 -10.478300 -22.291500 -0.000108 -0.000004 12.705900 5.386870 -2.494740 -2.192480 -6.469440 -0.000000 -171.070000 -15.425200 -14.970200 39.081100 -0.000007 -0.000012 -0.381370 0.234579 58.405400 40.985400 -0.000006 -0.000013 2.226000 9.130430 -84.200600 11.754300 -0.000000 0.000003 -0.000391 -0.003244 -16.697300 -2.192510 6.469440 -0.000001 179.060000 14.986400 165.454000 -39.081100 -0.002282 -0.040193 0.064674 -0.038770 57.756100 -40.985400 0.000008 0.000006 9.131830 5.968590 -85.041100 -11.754300 -0.000006 -0.000006 -1.012470 -1.271740 -16.247900
0.000000 0.000000 0.000000 0.000000 0.000000 -0.000000 -2.361150 86.086600 1.432080 88.496300 -1.861440 8.634940 15.735700 0.000005 -0.000001 82.854800 83.631700 -82.917800 8.984550 -0.406207 -0.000000 4.872310 -1.579580 -0.058571 16.377300 -0.000001 -0.000001 -1.627440 -1.653120 0.083232 6.456720 -0.000001 -0.000000 -1.481180 -1.300420 3.629200 12.994200 -0.242716 4.980390 -89.834200 -0.485813 -71.216100 5.348090 -0.000007 -0.000001 -62.165500 -26.362100 -18.976100 24.328600 0.000019 0.000005 4.681110 21.898600 -12.380700 22.291600 -0.000001 0.000005 16.764300 4.889710 9.541210 12.994500 -0.242716 -4.980390 88.804500 5.257600 -77.164300 -5.348130 -0.000001 -0.000004 -52.240500 -8.154940 -20.018500 -24.328900 0.000322 -0.000009 -1.062380 -9.388450 -6.485710 -22.291500 -0.000108 -0.000004 12.273600 5.326890 -0.715815 -2.192480 -6.469440 -0.000000 -171.532000 -14.108200 -9.301660 39.081100 -0.000007 -0.000012 -0.364726 0.308801 49.747400 40.985400 -0.000006 -0.000013 1.292600 8.985040 -81.219100 11.754300 -0.000000 0.000003 -0.000314 -0.002700 -16.678000 -2.192510 6.469440 -0.000001 178.230000 15.065900 171.040000 -39.081100 -0.002282 -0.040193 0.049559 -0.039360 49.638100 -40.985400 0.000008 0.000006 8.376730 6.173150 -81.836200 -11.754300 -0.000006 -0.000006 -1.224020 -1.536360 -16.639600
0.000000 0.000000 0.000000 0.000000 0.000000 -0.000000 -2.477560 88.744500 3.397550 89.107200 -1.029650 8.056430 15.735700 0.000005 -0.000001 78.466700 85.669600 -78.855200 8.984550 -0.406207 -0.000000 0.714714 -1.707100 -0.765768 16.377300 -0.000001 -0.000001 2.163930 -1.559570 -0.090518 6.456720 -0.000001 -0.000000 0.217766 -1.528960 3.878410 12.994200 -0.242716 4.980390 -88.946200 -2.770780 -69.179000 5.348090 -0.000007 -0.000001 -59.644400 -39.449100 -27.898700 24.328600 0.000019 0.000005 3.396840 19.371200 -10.144800 22.291600 -0.000001 0.000005 19.757900 4.751770 12.211300 12.994500 -0.242716 -4.980390 89.118000 3.271550 -74.893300 -5.348130 -0.000001 -0.000004 -45.581400 -19.507400 -25.355400 -24.328900 0.000322 -0.000009 -0.883823 -13.353700 -3.819060 -22.291500 -0.000108 -0.000004 14.383200 5.274330 0.779537 -2.192480 -6.469440 -0.000000 -172.481000 -12.502000 -3.107870 39.081100 -0.000007 -0.000012 -0.260874 0.327834 38.511500 40.985400 -0.000006 -0.000013 0.091852 8.370020 -76.853200 11.754300 -0.000000 0.000003 -0.000131 -0.001299 -16.627100 -2.192510 6.469440 -0.000001 177.726000 14.466700 176.611000 -39.081100 -0.002282 -0.040193 0.033415 -0.036206 39.771900 -40.985400 0.000008 0.000006 7.439220 5.739260 -76.833800 -11.754300 -0.000006 -0.000006 -1.439490 -1.771480 -17.726500
